<?xml version="1.0" encoding="UTF-8" standalone="no"?>
<!-- Created with Inkscape (http://www.inkscape.org/) -->

<svg
   xmlns:dc="http://purl.org/dc/elements/1.1/"
   xmlns:cc="http://creativecommons.org/ns#"
   xmlns:rdf="http://www.w3.org/1999/02/22-rdf-syntax-ns#"
   xmlns:svg="http://www.w3.org/2000/svg"
   xmlns="http://www.w3.org/2000/svg"
   xmlns:sodipodi="http://sodipodi.sourceforge.net/DTD/sodipodi-0.dtd"
   xmlns:inkscape="http://www.inkscape.org/namespaces/inkscape"
   width="40"
   height="80"
   id="svg2"
   version="1.1"
   inkscape:version="0.48.3.1 r9886"
   sodipodi:docname="hero.svg">
  <defs
     id="defs4" />
  <sodipodi:namedview
     id="base"
     pagecolor="#ffffff"
     bordercolor="#666666"
     borderopacity="1.0"
     inkscape:pageopacity="0.0"
     inkscape:pageshadow="2"
     inkscape:zoom="22.4"
     inkscape:cx="28.724687"
     inkscape:cy="68.597393"
     inkscape:document-units="px"
     inkscape:current-layer="layer1"
     showgrid="false"
     inkscape:window-width="1306"
     inkscape:window-height="744"
     inkscape:window-x="60"
     inkscape:window-y="24"
     inkscape:window-maximized="1" />
  <metadata
     id="metadata7">
    <rdf:RDF>
      <cc:Work
         rdf:about="">
        <dc:format>image/svg+xml</dc:format>
        <dc:type
           rdf:resource="http://purl.org/dc/dcmitype/StillImage" />
        <dc:title />
      </cc:Work>
    </rdf:RDF>
  </metadata>
  <g
     inkscape:label="Layer 1"
     inkscape:groupmode="layer"
     id="layer1"
     transform="translate(0,-972.36218)">
    <rect
       style="fill:#ffffff;stroke:none;stroke-width:0.10149031999999999;stroke-miterlimit:4;stroke-opacity:1;stroke-dasharray:none;fill-opacity:1"
       id="rect3755"
       width="39.874996"
       height="79.875"
       x="0.12127695"
       y="972.18677" />
    <path
       style="fill:#1a1a1a;stroke:#000000;stroke-width:0.2;stroke-linecap:butt;stroke-linejoin:miter;stroke-miterlimit:4;stroke-opacity:1;stroke-dasharray:none"
       d="m 17.28239,1050.5633 0,1.3258 7.89182,0 0,-1.1364 -4.86136,-1.1364 0,-1.389 -1.95717,0 0,1.389 z"
       id="path3757"
       inkscape:connector-curvature="0" />
    <path
       style="fill:#1a1a1a;stroke:#000000;stroke-width:0.2;stroke-linecap:butt;stroke-linejoin:miter;stroke-miterlimit:4;stroke-opacity:1;stroke-dasharray:none"
       d="m 5.00767,1048.1832 -0.46796,1.2405 7.38393,2.7855 0.40109,-1.0633 -4.1473803,-2.7791 0.49022,-1.2996 -1.8312,-0.6908 -0.4902397,1.2996 z"
       id="path3757-5"
       inkscape:connector-curvature="0" />
    <path
       style="fill:#2a7fff;stroke:#000000;stroke-width:0.21572673;stroke-linecap:butt;stroke-linejoin:miter;stroke-miterlimit:4;stroke-opacity:1;stroke-dasharray:none"
       d="m 15.19893,1011.1379 9.34391,0 c 1.22799,5.1582 3.21125,15.0003 0.17857,20.9174 0.78005,2.2245 0.37485,1.845 0,3.2824 -0.38641,6.0184 -1.11257,8.5812 -4.47172,12.6741 l -1.89404,0 c -2.57179,-5.6994 -0.561723,-10.2567 2.399117,-14.397 -1.87861,-4.0766 -4.477657,-9.466 -1.681107,-15.0967 -3.67425,-1.9833 -3.88156,-3.4501 -3.87473,-7.3802 z"
       id="path3777"
       inkscape:connector-curvature="0"
       sodipodi:nodetypes="ccccccccc" />
    <path
       style="fill:#2a7fff;fill-opacity:1;stroke:#000000;stroke-width:0.21281782;stroke-linecap:butt;stroke-linejoin:miter;stroke-miterlimit:4;stroke-opacity:1;stroke-dasharray:none"
       d="m 14.08794,1011.1702 9.96891,0 c -0.3171,5.02 -1.28178,14.5984 -6.08685,20.3571 0.11376,2.1649 -0.35634,1.7005 -1.16174,3.0994 -1.88625,6.577 -2.82763,9.8308 -8.0894203,12.4296 l -1.84174,-0.7766 c 0.48778,-5.5587 2.4905559,-9.5719 6.5328863,-13.6135 -0.65756,-3.9674 -2.526172,-8.0273 1.956928,-13.5071 -2.50866,-1.8085 -1.844414,-4.0324 -1.278974,-7.9889 z"
       id="path3777-3"
       inkscape:connector-curvature="0"
       sodipodi:nodetypes="ccccccccc" />
    <path
       style="fill:#e9ddaf;fill-opacity:1;stroke:#000000;stroke-width:0.18588427;stroke-linecap:butt;stroke-linejoin:miter;stroke-miterlimit:4;stroke-opacity:1;stroke-dasharray:none"
       d="m 23.776335,986.13959 c -0.648721,-0.4994 -1.530335,-0.1242 -2.461473,0.437 -0.784365,0.676 -1.329266,1.4895 -1.49004,2.5236 -1.499002,4.9188 0.7198,6.2199 2.097525,8.3394 l -0.09511,0.3572 0.293199,0.492 c 2.913071,1.339 5.640356,1.00603 8.254726,-0.39497 -0.08543,-0.0986 -0.874513,0.50524 -0.651761,-1.66419 -1.620524,-1.0343 -3.240809,-0.73394 -6.21115,-0.12664 2.330575,-3.3163 2.037109,-6.6383 0.263997,-9.9633 z"
       id="path3821-6"
       inkscape:connector-curvature="0"
       sodipodi:nodetypes="ccccccccccc" />
    <path
       style="fill:#e9ddaf;stroke:#000000;stroke-width:0.19430976;stroke-linecap:butt;stroke-linejoin:miter;stroke-miterlimit:4;stroke-opacity:1;stroke-dasharray:none"
       d="m 14.1709,1011.081 10.40179,0 c 0.2671,-0.9213 1.02039,-1.9175 0.75893,-2.7391 0.24739,-0.5899 0.20969,-0.8153 0.3125,-2.2333 0.0147,-0.4354 0.32097,-1.0581 0.22321,-1.9384 0.0438,-0.4939 -0.0613,-0.9802 0.0893,-2.0226 l 0.13393,-8.21714 c 1.60857,-1.743 0.26313,-3.805 -0.17858,-5.2252 -0.9977,-1.0952 -1.3016,-2.5477 -3.48214,-3.034 0.116614,-0.72463 0.454667,-0.99511 0.08167,-2.12846 -1.364108,-0.19301 -2.3055,-0.61523 -3.117339,-0.84161 -0.165289,0.8412 -0.33744,1.98697 0,2.71757 -2.578062,0.16573 -4.09829,0.95278 -5.71429,1.9805 -2.09443,8.249 0.7055,16.24924 0.49102,23.68204 z"
       id="path3825"
       inkscape:connector-curvature="0"
       sodipodi:nodetypes="ccccccccccccccc" />
    <path
       style="fill:#e9ddaf;fill-opacity:1;stroke:#000000;stroke-width:0.2;stroke-linecap:butt;stroke-linejoin:miter;stroke-miterlimit:4;stroke-opacity:1;stroke-dasharray:none"
       d="m 15.582827,987.11309 c -0.719797,-0.4978 -1.764904,-0.1209 -2.879123,0.442 -0.951478,0.6772 -1.634307,1.4914 -1.886135,2.5253 -2.0483565,4.9192 0.439477,6.2149 1.90111,8.3303 l -0.132812,0.3571 0.308471,0.4911 c 3.289669,1.33211 6.497368,1.36121 9.614736,-0.045 0.103258,-0.6378 -0.451131,-0.9664 0.707557,-2.1429 -1.811676,-1.0303 -5.091963,-0.6132 -8.57142,0 2.910104,-3.3194 2.780747,-6.6388 0.937556,-9.9583 z"
       id="path3821"
       inkscape:connector-curvature="0"
       sodipodi:nodetypes="cccccccccc" />
    <path
       style="fill:#4d4d4d;stroke:#000000;stroke-width:0.2462175;stroke-linecap:butt;stroke-linejoin:miter;stroke-miterlimit:4;stroke-opacity:1;stroke-dasharray:none"
       d="m 17.64413,995.65809 5.27745,0 0,3.9286 1.21787,0 0,-3.9286 12.17874,0 0,-1.1607 -18.67406,0 z"
       id="path3827"
       inkscape:connector-curvature="0" />
    <path
       style="fill:none;stroke:#000000;stroke-width:0.17606251;stroke-linecap:butt;stroke-linejoin:miter;stroke-miterlimit:4;stroke-opacity:1;stroke-dasharray:none"
       d="m 22.475104,999.07399 1.84957,0 c 0.234556,-0.2163 0.174703,-0.4055 0.168663,-0.5657 0.146178,-0.1463 0.226324,-0.3105 0.153906,-0.5162 0.193851,-0.1604 0.183681,-0.3208 0.143507,-0.4813 0.175133,-0.1737 0.16538,-0.3473 0.155362,-0.521 l -1.84957,0 c -0.773289,0.7705 -0.72023,1.4304 -0.621438,2.0842 z"
       id="path3829"
       inkscape:connector-curvature="0"
       sodipodi:nodetypes="cccccccc" />
    <path
       style="fill:none;stroke:#000000;stroke-width:0.1;stroke-linecap:butt;stroke-linejoin:miter;stroke-miterlimit:4;stroke-opacity:1;stroke-dasharray:none"
       d="m 23.16198,994.72059 0,0.6697 0.53572,0 0,-0.6697 z"
       id="path3831"
       inkscape:connector-curvature="0" />
    <path
       style="fill:none;stroke:#000000;stroke-width:0.1;stroke-linecap:butt;stroke-linejoin:miter;stroke-miterlimit:4;stroke-opacity:1;stroke-dasharray:none"
       d="m 24.09936,994.69829 0,0.6696 0.53572,0 0,-0.6696 z"
       id="path3831-9"
       inkscape:connector-curvature="0" />
    <path
       style="fill:none;stroke:#000000;stroke-width:0.1;stroke-linecap:butt;stroke-linejoin:miter;stroke-miterlimit:4;stroke-opacity:1;stroke-dasharray:none"
       d="m 24.96996,994.70949 0,0.6697 0.53572,0 0,-0.6697 z"
       id="path3831-4"
       inkscape:connector-curvature="0" />
    <path
       style="fill:none;stroke:#000000;stroke-width:0.1;stroke-linecap:butt;stroke-linejoin:miter;stroke-miterlimit:4;stroke-opacity:1;stroke-dasharray:none"
       d="m 25.90734,994.68709 0,0.6697 0.53572,0 0,-0.6697 z"
       id="path3831-9-4"
       inkscape:connector-curvature="0" />
    <path
       style="fill:none;stroke:#000000;stroke-width:0.1;stroke-linecap:butt;stroke-linejoin:miter;stroke-miterlimit:4;stroke-opacity:1;stroke-dasharray:none"
       d="m 26.77141,994.71509 0,0.6696 0.53572,0 0,-0.6696 z"
       id="path3831-43"
       inkscape:connector-curvature="0" />
    <path
       style="fill:none;stroke:#000000;stroke-width:0.1;stroke-linecap:butt;stroke-linejoin:miter;stroke-miterlimit:4;stroke-opacity:1;stroke-dasharray:none"
       d="m 27.70879,994.69269 0,0.6696 0.53572,0 0,-0.6696 z"
       id="path3831-9-2"
       inkscape:connector-curvature="0" />
    <path
       style="fill:none;stroke:#000000;stroke-width:0.1;stroke-linecap:butt;stroke-linejoin:miter;stroke-miterlimit:4;stroke-opacity:1;stroke-dasharray:none"
       d="m 28.57939,994.70399 0,0.6696 0.53572,0 0,-0.6696 z"
       id="path3831-4-9"
       inkscape:connector-curvature="0" />
    <path
       style="fill:none;stroke:#000000;stroke-width:0.1;stroke-linecap:butt;stroke-linejoin:miter;stroke-miterlimit:4;stroke-opacity:1;stroke-dasharray:none"
       d="m 29.51677,994.68159 0,0.6696 0.53572,0 0,-0.6696 z"
       id="path3831-9-4-7"
       inkscape:connector-curvature="0" />
    <path
       style="fill:#000000;fill-opacity:0;stroke:#000000;stroke-width:0.17606251;stroke-linecap:butt;stroke-linejoin:miter;stroke-miterlimit:4;stroke-opacity:1;stroke-dasharray:none"
       d="m 31.762823,998.35576 0.07009,-1.8376 c -0.207569,-0.2677 -0.399045,-0.2384 -0.559532,-0.2579 -0.14083,-0.1686 -0.302108,-0.2745 -0.510555,-0.235 -0.153161,-0.2183 -0.314033,-0.2338 -0.476041,-0.2196 -0.167122,-0.2018 -0.341233,-0.2199 -0.515382,-0.2372 l -0.0701,1.8377 c 0.741533,0.8914 1.403702,0.9441 2.061483,0.9504 z"
       id="path3829-1"
       inkscape:connector-curvature="0"
       sodipodi:nodetypes="cccccccc" />
    <path
       style="fill:#e9ddaf;stroke:#000000;stroke-width:0.18965346999999999;stroke-linecap:butt;stroke-linejoin:miter;stroke-miterlimit:4;stroke-opacity:1;stroke-dasharray:none;fill-opacity:1"
       d="m 21.150069,983.23355 2.525381,0.5961 0.252538,-2.01537 -0.56821,0 0.505076,0 0.189404,-0.96512 0.126269,0 -0.189404,-1.5896 0.315673,-0.28385 -0.189404,-1.07865 -0.378807,-0.68126 c -2.624717,-1.58168 -3.987463,-1.0199 -5.113897,-0.0567 -0.420916,0.43525 -0.452445,0.96511 -0.536644,1.47605 l -0.03157,2.04377 0.378807,1.75991 2.714785,0.82318"
       id="path3771"
       inkscape:connector-curvature="0"
       sodipodi:nodetypes="cccccccccccccccc" />
    <path
       style="fill:#ff0000;stroke:#000000;stroke-width:0.11845717000000000;stroke-linecap:butt;stroke-linejoin:miter;stroke-miterlimit:4;stroke-opacity:1;stroke-dasharray:none"
       d="m 17.393564,978.11495 0.315673,0.31007 6.850097,0.13289 0,-0.57584 -7.039501,-0.17718 z"
       id="path3773"
       inkscape:connector-curvature="0" />
    <path
       style="fill:#ff0000;stroke:#000000;stroke-width:0.10000000000000001;stroke-linecap:butt;stroke-linejoin:miter;stroke-opacity:1;stroke-miterlimit:4;stroke-dasharray:none"
       d="m 17.361997,5.8800569 -0.34724,0.9785852 0,0.9154508 -0.284105,0 0.06313,-0.9154508 z"
       id="path3775"
       inkscape:connector-curvature="0"
       transform="translate(0,972.36218)" />
    <path
       style="fill:#ff0000;stroke:#000000;stroke-width:0.09891427000000000;stroke-linecap:butt;stroke-linejoin:miter;stroke-miterlimit:4;stroke-opacity:1;stroke-dasharray:none"
       d="m 17.305483,978.21054 -1.076276,0.19567 -0.478345,1.20662 0.149483,0 0,0 0.418551,-1.07617 z"
       id="path3778"
       inkscape:connector-curvature="0" />
  </g>
</svg>
